<svg height="416pt" viewBox="-12 0 416 416" width="416pt" xmlns="http://www.w3.org/2000/svg"><path d="m100 12v149.121094c0 14.175781 7.503906 27.285156 19.71875 34.480468l48.28125 28.398438-12.953125 96h81.90625l-12.953125-96 48.28125-28.398438c12.214844-7.1875 19.71875-20.304687 19.71875-34.480468v-149.121094c0-4.414062-3.585938-8-8-8h-176c-4.414062 0-8 3.585938-8 8zm0 0" fill="#ffd740"/><path d="m236.953125 324c-1.976563 0-3.6875-1.457031-3.960937-3.464844l-12.953126-96c-.214843-1.597656.546876-3.167968 1.9375-3.984375l48.28125-28.398437c10.941407-6.441406 17.742188-18.335938 17.742188-31.03125v-149.121094c0-2.207031-1.792969-4-4-4h-176c-2.207031 0-4 1.792969-4 4v149.121094c0 12.703125 6.800781 24.589844 17.742188 31.03125l48.28125 28.398437c1.390624.816407 2.152343 2.386719 1.9375 3.984375l-12.953126 96c-.304687 2.183594-2.273437 3.695313-4.496093 3.433594-2.183594-.296875-3.71875-2.3125-3.433594-4.496094l12.601563-93.359375-45.992188-27.050781c-13.375-7.871094-21.6875-22.40625-21.6875-37.925781v-149.136719c0-6.617188 5.382812-12 12-12h176c6.617188 0 12 5.382812 12 12v149.121094c0 15.519531-8.3125 30.054687-21.6875 37.925781l-45.992188 27.050781 12.601563 93.359375c.292969 2.191407-1.242187 4.199219-3.433594 4.496094-.175781.039063-.359375.046875-.535156.046875zm0 0" fill="#263238"/><path d="m304 152h-12c-2.207031 0-4-1.792969-4-4v-24c0-2.207031 1.792969-4 4-4h12c13.230469 0 24-10.769531 24-24v-40h-36c-2.207031 0-4-1.792969-4-4v-24c0-2.207031 1.792969-4 4-4h52c8.824219 0 16 7.175781 16 16v56c0 30.878906-25.121094 56-56 56zm-8-8h8c26.472656 0 48-21.527344 48-48v-56c0-4.40625-3.59375-8-8-8h-48v16h36c2.207031 0 4 1.792969 4 4v44c0 17.648438-14.351562 32-32 32h-8zm0 0" fill="#263238"/><path d="m100 152h-12c-30.878906 0-56-25.121094-56-56v-56c0-8.824219 7.175781-16 16-16h52c2.207031 0 4 1.792969 4 4v24c0 2.207031-1.792969 4-4 4h-36v40c0 13.230469 10.769531 24 24 24h12c2.207031 0 4 1.792969 4 4v24c0 2.207031-1.792969 4-4 4zm-52-120c-4.40625 0-8 3.59375-8 8v56c0 26.472656 21.527344 48 48 48h8v-16h-8c-17.648438 0-32-14.351562-32-32v-44c0-2.207031 1.792969-4 4-4h36v-16zm0 0" fill="#263238"/><path d="m196 56 12.367188 26.335938 27.632812 4.222656-20 20.496094 4.726562 28.945312-24.726562-13.664062-24.71875 13.664062 4.71875-28.945312-20-20.496094 27.640625-4.222656zm0 0" fill="#fff"/><path d="m220.726562 140c-.664062 0-1.335937-.167969-1.933593-.496094l-22.792969-12.601562-22.792969 12.59375c-1.335937.742187-2.992187.648437-4.238281-.230469-1.25-.882813-1.890625-2.402344-1.648438-3.914063l4.398438-26.953124-18.589844-19.046876c-1.050781-1.070312-1.410156-2.640624-.929687-4.0625.480469-1.425781 1.703125-2.457031 3.183593-2.679687l25.527344-3.90625 11.457032-24.398437c1.320312-2.808594 5.921874-2.808594 7.242187 0l11.453125 24.398437 25.53125 3.90625c1.476562.222656 2.710938 1.261719 3.183594 2.679687.46875 1.414063.117187 2.992188-.929688 4.0625l-18.589844 19.046876 4.398438 26.953124c.246094 1.511719-.390625 3.03125-1.648438 3.914063-.664062.488281-1.472656.734375-2.28125.734375zm-24.726562-21.664062c.664062 0 1.335938.167968 1.9375.496093l17.511719 9.679688-3.402344-20.816407c-.199219-1.253906.199219-2.527343 1.089844-3.4375l14.558593-14.929687-19.941406-3.046875c-1.320312-.203125-2.449218-1.050781-3.019531-2.257812l-8.734375-18.609376-8.734375 18.625c-.570313 1.207032-1.699219 2.058594-3.019531 2.257813l-19.941406 3.046875 14.558593 14.929688c.890625.902343 1.289063 2.183593 1.089844 3.4375l-3.402344 20.816406 17.511719-9.679688c.609375-.34375 1.273438-.511718 1.9375-.511718zm0 0" fill="#263238"/><path d="m68 320c-1.71875 0-3.246094-1.105469-3.792969-2.734375l-4.421875-13.265625c-1.847656-5.527344-6.257812-9.9375-11.785156-11.785156l-13.265625-4.421875c-1.628906-.546875-2.734375-2.074219-2.734375-3.792969s1.105469-3.246094 2.734375-3.792969l13.265625-4.421875c5.527344-1.847656 9.9375-6.257812 11.785156-11.785156l4.421875-13.265625c1.089844-3.261719 6.496094-3.261719 7.585938 0l4.421875 13.265625c1.847656 5.527344 6.257812 9.9375 11.785156 11.785156l13.265625 4.421875c1.628906.546875 2.734375 2.074219 2.734375 3.792969s-1.105469 3.246094-2.734375 3.792969l-13.265625 4.421875c-5.527344 1.847656-9.9375 6.257812-11.785156 11.785156l-4.421875 13.265625c-.546875 1.628906-2.074219 2.734375-3.792969 2.734375zm-19.351562-36 1.878906.632812c7.90625 2.640626 14.199218 8.933594 16.839844 16.839844l.632812 1.878906.632812-1.878906c2.640626-7.90625 8.933594-14.199218 16.839844-16.839844l1.878906-.632812-1.878906-.632812c-7.90625-2.640626-14.199218-8.933594-16.839844-16.839844l-.632812-1.878906-.632812 1.878906c-2.640626 7.90625-8.933594 14.199218-16.839844 16.839844zm0 0" fill="#263238"/><path d="m324 320c-1.71875 0-3.246094-1.105469-3.792969-2.734375l-4.421875-13.265625c-1.847656-5.527344-6.257812-9.9375-11.785156-11.785156l-13.265625-4.421875c-1.628906-.546875-2.734375-2.074219-2.734375-3.792969s1.105469-3.246094 2.734375-3.792969l13.265625-4.421875c5.527344-1.847656 9.9375-6.257812 11.785156-11.785156l4.421875-13.265625c1.089844-3.261719 6.496094-3.261719 7.585938 0l4.421875 13.265625c1.847656 5.527344 6.257812 9.9375 11.785156 11.785156l13.265625 4.421875c1.628906.546875 2.734375 2.074219 2.734375 3.792969s-1.105469 3.246094-2.734375 3.792969l-13.265625 4.421875c-5.527344 1.847656-9.9375 6.257812-11.785156 11.785156l-4.421875 13.265625c-.546875 1.628906-2.074219 2.734375-3.792969 2.734375zm-19.351562-36 1.878906.632812c7.90625 2.640626 14.199218 8.933594 16.839844 16.839844l.632812 1.878906.632812-1.878906c2.640626-7.90625 8.933594-14.199218 16.839844-16.839844l1.878906-.632812-1.878906-.632812c-7.90625-2.640626-14.199218-8.933594-16.839844-16.839844l-.632812-1.878906-.632812 1.878906c-2.640626 7.90625-8.933594 14.199218-16.839844 16.839844zm0 0" fill="#263238"/><path d="m284 412h-176v-56c0-11.046875 8.953125-20 20-20h136c11.046875 0 20 8.953125 20 20zm0 0" fill="#40c4ff"/><g fill="#263238"><path d="m284 416h-176c-2.207031 0-4-1.792969-4-4v-56c0-13.230469 10.769531-24 24-24h136c13.230469 0 24 10.769531 24 24v56c0 2.207031-1.792969 4-4 4zm-172-8h168v-52c0-8.824219-7.175781-16-16-16h-136c-8.824219 0-16 7.175781-16 16zm0 0"/><path d="m356 416h-320c-2.207031 0-4-1.792969-4-4s1.792969-4 4-4h320c2.207031 0 4 1.792969 4 4s-1.792969 4-4 4zm0 0"/><path d="m20 416h-16c-2.207031 0-4-1.792969-4-4s1.792969-4 4-4h16c2.207031 0 4 1.792969 4 4s-1.792969 4-4 4zm0 0"/><path d="m388 416h-16c-2.207031 0-4-1.792969-4-4s1.792969-4 4-4h16c2.207031 0 4 1.792969 4 4s-1.792969 4-4 4zm0 0"/><path d="m236 378h-80c-2.207031 0-4-1.792969-4-4s1.792969-4 4-4h80c2.207031 0 4 1.792969 4 4s-1.792969 4-4 4zm0 0"/></g></svg>