<?xml version="1.0" encoding="utf-8"?>
<!-- Generator: Adobe Illustrator 24.3.0, SVG Export Plug-In . SVG Version: 6.00 Build 0)  -->
<svg version="1.1" id="Layer_1" xmlns="http://www.w3.org/2000/svg" xmlns:xlink="http://www.w3.org/1999/xlink" x="0px" y="0px"
	 viewBox="0 0 1742.2 436" style="enable-background:new 0 0 1742.2 436;" xml:space="preserve">
<style type="text/css">
	.st0{fill:#FFFFFF;}
</style>
<path class="st0" d="M1736.6,200.9l-122.2-98l53-94.3c3.4-6-4.5-11.8-9.3-6.9l-73.9,77l-25.4-20.4c-2.7-2.1-6-3.3-9.4-3.3h-75.7
	c-5.6,0-10.7,3.1-13.3,8.1l-86.5,166.8c-2,3.9-2.2,8.5-0.6,12.6l12.8,31.1l135.2,84.4c7,4.4,9.2,13.6,4.8,20.7
	c-4.4,7-13.6,9.2-20.7,4.8l-99.7-62.2l47.4,114.7h208.7l26.8-37.3c3.6-5,3.8-11.8,0.3-17l-66.6-101.1l-115.4-55.2
	c-7.5-3.6-10.6-12.5-7.1-20c3.6-7.5,12.5-10.6,20-7.1l147.9,70.8l45.2,5.3c7.4,0.9,14.4-3.9,16.3-11.1l12.4-47
	C1743.2,210.6,1741.2,204.6,1736.6,200.9z"/>
<g>
	<path class="st0" d="M191.5,251.1c0,31.9-6.9,57.5-20.8,77c-30.3,9.1-57.2,13.7-80.6,13.7c-30.6,0-53.2-6.3-67.9-19
		C7.4,310.1,0,291.9,0,268c0-23.2,6.8-51.8,20.5-85.8l44.9,14.6c-8,22.3-12,39.6-12,51.7c0,11.1,3.1,19.3,9.3,24.9
		s15.8,8.3,28.8,8.3c5.6,0,12.6-0.5,21-1.6c8.3-1.1,16.8-2.7,25.5-4.9c-0.6-15.4-1.7-29.1-3.1-41.3c-1.4-12.1-3.3-27.4-5.7-45.8
		l52.7-11.1C188.2,204.3,191.5,229,191.5,251.1z M84.5,155.1c-7.4-5.1-12.5-9.5-15.3-13.2c0.7-2.8,2.3-6.7,5-11.5
		c2.7-4.9,5.8-9.3,9.3-13.3c3.5-4,6.5-6.2,9.1-6.7c2.4-0.4,6,0.7,10.9,3.3c4.9,2.6,9.4,5.8,13.7,9.6c4.2,3.8,6.6,6.8,7,8.9
		c0.9,3.3-1.6,8.9-7.3,17.1c-5.7,8.1-10.6,13.5-14.5,16.1C97.9,163.6,91.9,160.2,84.5,155.1z"/>
	<path class="st0" d="M209,352.6c-10.4-6.7-17.9-12.9-22.4-18.5c10.4-15.4,20.6-33.7,30.6-54.9c10.4-21.7,19-43.6,25.7-65.7
		l45.5,15.3c-3.7,21.5-10.4,45-20.2,70.5c-6.1,15.8-12.3,30-18.7,42.4c-6.4,12.5-11,21-13.8,25.5C228.1,364.4,219.2,359.5,209,352.6
		z"/>
	<path class="st0" d="M431.6,231c1.2,5,1.8,12.6,1.8,22.8c0,10.4-0.7,18-2,22.9s-3.6,7.3-6.8,7.3c-8,0-16.5-0.7-25.4-2
		c-5.4,15.8-12.5,30.9-21.1,45.3c-8.7,14.4-17.3,26.8-26,37.2c-6.9-2.6-15.6-7.3-25.8-14.1c-10.3-6.8-18-13.2-23.2-19
		c0.6-0.9,1.5-1.7,2.4-2.6c1-0.9,1.9-1.8,2.8-2.9c18.2-18.9,31.9-35.1,41-48.8c-12.8-2.8-23.5-8.2-32.2-16.1
		c-8.7-7.9-13-17.8-13-29.7c0-10.6,2.9-21.5,8.8-32.7c5.9-11.2,13.3-20.4,22.3-27.6c9-7.3,17.9-10.9,26.8-10.9
		c9.5,0,17.8,3,24.7,9.1c6.9,6.1,12.3,13.9,16.1,23.4c3.8,9.5,6,19.6,6.7,30.2c6.9,0.4,12,0.6,15.3,0.6
		C428,223.5,430.4,226,431.6,231z M354,224.5c5.2,0.7,10.6,1,16.3,1c4.8,0,8.2-0.1,10.4-0.3c-3.7-4.6-8.3-8.3-13.8-11.2
		c-5.5-2.9-10.9-4.4-16.1-4.4c-3.9,0-7.1,0.8-9.6,2.4c-2.5,1.6-3.7,4-3.7,7C338.7,221.3,344.3,223.2,354,224.5z"/>
	<path class="st0" d="M571,231c1.2,5,1.8,12.6,1.8,22.8c0,10.4-0.7,18-2,22.9s-3.6,7.3-6.8,7.3c-7.6,0-15.2-2.2-22.9-6.7
		c-7.7-4.4-15.6-10.7-23.6-18.7l-12.4,17.9c-6.9,2.8-16.2,4.8-27.8,5.9c-11.6,1.1-29.2,1.6-52.8,1.6c-3.3,0-5.5-2.4-6.8-7.3
		c-1.3-4.9-2-12.5-2-22.9c0-10.2,0.6-17.8,1.8-22.8c1.2-5,3.5-7.5,7-7.5c24.7,0,44.4-1,59.2-2.9c-8.9-10.4-15.9-18.5-21-24.2
		c-5.1-5.7-10.5-11.1-16.1-16.1v-52.3l103.7-38.7l4.6,3.3v53.6L498,164l15.6,18.9c11.7,14.3,21.1,24.7,28.1,31
		c7,6.4,14.5,9.6,22.3,9.6C567.5,223.5,569.8,226,571,231z"/>
	<path class="st0" d="M698.1,231c1.2,5,1.8,12.6,1.8,22.8c0,10.4-0.6,18-2,22.9c-1.3,4.9-3.6,7.3-6.8,7.3
		c-22.1,0-38.9-7.6-50.4-22.8h-2.9c-4.6,6.5-10.9,11.4-19.2,14.6c-8,3.3-15.9,5.4-23.7,6.5c-7.8,1.1-18.1,1.6-30.9,1.6
		c-3.3,0-5.5-2.4-6.8-7.3c-1.3-4.9-2-12.5-2-22.9c0-10.2,0.6-17.8,1.8-22.8c1.2-5,3.5-7.5,7-7.5c11.9,0,21.9-0.8,29.9-2.3
		c8-1.5,15.3-4.8,21.8-9.8c6.5-5,11.8-12.5,15.9-22.4l27.3,4.2c-0.2,1.7-0.3,4.1-0.3,7.2c0,9.1,2.4,15.2,7.2,18.4
		c4.8,3.1,13.2,4.7,25.4,4.7C694.6,223.5,696.9,226,698.1,231z M654.7,343.1c-5.2,7.4-9.6,12.4-13.3,15c-4.1-1.7-9.3-4.7-15.6-8.9
		c-6.3-4.2-10.9-8.1-14-11.5c-2.2,3.9-5,7.9-8.5,12c-3.5,4.1-6.3,6.9-8.5,8.5c-4.3-2-9.9-5.3-16.6-9.9c-6.7-4.7-11.5-8.6-14.3-11.9
		c1.3-4.6,4.6-10.6,9.8-18.2c5.2-7.6,9.5-11.4,13-11.4c3.5,0,8.7,2.4,15.6,7.3c6.9,4.9,11.2,8.9,12.7,12.2c3-5.4,6.2-10,9.4-13.8
		c3.3-3.8,6.2-5.7,8.8-5.7c3.5,0,8.9,2.7,16.4,8c7.5,5.3,11.5,9.5,12.2,12.5C662.3,330.5,659.9,335.8,654.7,343.1z"/>
	<path class="st0" d="M825.2,231c1.2,5,1.8,12.6,1.8,22.8c0,10.4-0.7,18-2,22.9s-3.6,7.3-6.8,7.3c-22.1,0-38.9-7.6-50.4-22.8h-2.9
		c-4.6,6.5-10.9,11.4-19.2,14.6c-8,3.3-15.9,5.4-23.7,6.5c-7.8,1.1-18.1,1.6-30.9,1.6c-3.3,0-5.5-2.4-6.8-7.3
		c-1.3-4.9-2-12.5-2-22.9c0-10.2,0.6-17.8,1.8-22.8c1.2-5,3.5-7.5,7-7.5c11.9,0,21.9-0.8,29.9-2.3c8-1.5,15.3-4.8,21.8-9.8
		c6.5-5,11.8-12.5,15.9-22.4l27.3,4.2c-0.2,1.7-0.3,4.1-0.3,7.2c0,9.1,2.4,15.2,7.2,18.4c4.8,3.1,13.2,4.7,25.4,4.7
		C821.7,223.5,824,226,825.2,231z M800.4,151.3c-5.2,7.4-9.6,12.4-13.3,15c-4.1-1.7-9.3-4.7-15.6-8.9c-6.3-4.2-10.9-8.1-14-11.5
		c-2.2,3.9-5,7.9-8.5,12c-3.5,4.1-6.3,6.9-8.5,8.5c-4.3-2-9.9-5.3-16.6-9.9c-6.7-4.7-11.5-8.6-14.3-11.9c1.3-4.6,4.6-10.6,9.8-18.2
		c5.2-7.6,9.5-11.4,13-11.4c3.5,0,8.7,2.4,15.6,7.3c6.9,4.9,11.2,8.9,12.7,12.2c3-5.4,6.2-10,9.4-13.8c3.3-3.8,6.2-5.7,8.8-5.7
		c3.5,0,8.9,2.7,16.4,8c7.5,5.3,11.5,9.5,12.2,12.5C807.9,138.7,805.6,144,800.4,151.3z"/>
	<path class="st0" d="M952.3,231c1.2,5,1.8,12.6,1.8,22.8c0,10.4-0.7,18-2,22.9c-1.3,4.9-3.6,7.3-6.8,7.3
		c-22.1,0-38.9-7.6-50.4-22.8H892c-4.6,6.5-10.9,11.4-19.2,14.6c-8,3.3-15.9,5.4-23.7,6.5c-7.8,1.1-18.1,1.6-30.9,1.6
		c-3.3,0-5.5-2.4-6.8-7.3c-1.3-4.9-2-12.5-2-22.9c0-10.2,0.6-17.8,1.8-22.8c1.2-5,3.5-7.5,7-7.5c11.9,0,21.9-0.8,29.9-2.3
		c8-1.5,15.3-4.8,21.8-9.8c6.5-5,11.8-12.5,15.9-22.4l27.3,4.2c-0.2,1.7-0.3,4.1-0.3,7.2c0,9.1,2.4,15.2,7.2,18.4
		c4.8,3.1,13.2,4.7,25.4,4.7C948.8,223.5,951.1,226,952.3,231z M908.9,343.1c-5.2,7.4-9.6,12.4-13.3,15c-4.1-1.7-9.3-4.7-15.6-8.9
		c-6.3-4.2-10.9-8.1-14-11.5c-2.2,3.9-5,7.9-8.5,12c-3.5,4.1-6.3,6.9-8.5,8.5c-4.3-2-9.9-5.3-16.6-9.9c-6.7-4.7-11.5-8.6-14.3-11.9
		c1.3-4.6,4.6-10.6,9.8-18.2c5.2-7.6,9.5-11.4,13-11.4c3.5,0,8.7,2.4,15.6,7.3c6.9,4.9,11.2,8.9,12.7,12.2c3-5.4,6.2-10,9.4-13.8
		c3.3-3.8,6.2-5.7,8.8-5.7c3.5,0,8.9,2.7,16.4,8c7.5,5.3,11.5,9.5,12.2,12.5C916.5,330.5,914.1,335.8,908.9,343.1z"/>
	<path class="st0" d="M1024,215.4c0,11.7-1.1,22.8-3.4,33.2c-2.3,10.4-5.6,19.1-9.9,26c-19.7,6.3-41.5,9.4-65.3,9.4
		c-3.3,0-5.5-2.4-6.8-7.3c-1.3-4.9-2-12.5-2-22.9c0-10.2,0.6-17.8,1.8-22.8c1.2-5,3.5-7.5,7-7.5c13.7,0,24.2-1,31.5-2.9
		c-2.2-9.1-5.9-21-11.1-35.8l52.3-12C1022.1,185.1,1024,199.3,1024,215.4z M967.1,146c-7.4-5.1-12.5-9.5-15.3-13.2
		c0.7-2.8,2.3-6.7,5-11.5c2.7-4.9,5.8-9.3,9.3-13.3c3.5-4,6.5-6.2,9.1-6.7c2.4-0.4,6,0.7,10.9,3.3c4.9,2.6,9.4,5.8,13.7,9.6
		c4.2,3.8,6.6,6.8,7,8.9c0.9,3.3-1.6,8.9-7.3,17.1c-5.7,8.1-10.6,13.5-14.5,16.1C980.5,154.5,974.5,151.1,967.1,146z"/>
	<path class="st0" d="M1168.8,231c1.2,5,1.8,12.6,1.8,22.8c0,10.4-0.7,18-2,22.9c-1.3,4.9-3.6,7.3-6.8,7.3c-8,0-16.5-0.7-25.4-2
		c-5.4,15.8-12.5,30.9-21.1,45.3c-8.7,14.4-17.3,26.8-26,37.2c-6.9-2.6-15.6-7.3-25.8-14.1c-10.3-6.8-18-13.2-23.2-19
		c0.7-0.9,1.5-1.7,2.4-2.6c1-0.9,1.9-1.8,2.8-2.9c18.2-18.9,31.9-35.1,41-48.8c-12.8-2.8-23.5-8.2-32.2-16.1
		c-8.7-7.9-13-17.8-13-29.7c0-10.6,2.9-21.5,8.8-32.7c5.9-11.2,13.3-20.4,22.3-27.6c9-7.3,17.9-10.9,26.8-10.9
		c9.5,0,17.8,3,24.7,9.1c6.9,6.1,12.3,13.9,16.1,23.4c3.8,9.5,6,19.6,6.7,30.2c6.9,0.4,12,0.6,15.3,0.6
		C1165.3,223.5,1167.6,226,1168.8,231z M1091.3,224.5c5.2,0.7,10.6,1,16.3,1c4.8,0,8.2-0.1,10.4-0.3c-3.7-4.6-8.3-8.3-13.8-11.2
		s-10.9-4.4-16.1-4.4c-3.9,0-7.1,0.8-9.6,2.4c-2.5,1.6-3.7,4-3.7,7C1076,221.3,1081.6,223.2,1091.3,224.5z"/>
	<path class="st0" d="M1260.7,215c0,11.5-1.2,22.5-3.6,33.2c-2.4,10.6-5.7,19.4-10.1,26.3c-9.1,2.6-21.1,4.8-36.1,6.7
		c-15,1.8-31.3,2.8-49.1,2.8c-3.3,0-5.5-2.4-6.8-7.3c-1.3-4.9-2-12.5-2-22.9c0-10.2,0.6-17.8,1.8-22.8c1.2-5,3.5-7.5,7-7.5
		c23.2,0,40.3-1.3,51.4-3.9c-1.7-7.4-3.9-14.6-6.3-21.8c-2.5-7.2-4-11.5-4.4-13l52-12C1258.6,185.8,1260.7,199.9,1260.7,215z
		 M1246.4,343.1c-5.2,7.4-9.6,12.4-13.3,15c-4.1-1.7-9.3-4.7-15.6-8.9c-6.3-4.2-10.9-8.1-14-11.5c-2.2,3.9-5,7.9-8.5,12
		c-3.5,4.1-6.3,6.9-8.5,8.5c-4.3-2-9.9-5.3-16.6-9.9c-6.7-4.7-11.5-8.6-14.3-11.9c1.3-4.6,4.6-10.6,9.8-18.2
		c5.2-7.6,9.5-11.4,13-11.4c3.5,0,8.7,2.4,15.6,7.3c6.9,4.9,11.2,8.9,12.7,12.2c3-5.4,6.2-10,9.4-13.8c3.3-3.8,6.2-5.7,8.8-5.7
		c3.5,0,8.9,2.7,16.4,8c7.5,5.3,11.5,9.5,12.2,12.5C1254,330.5,1251.6,335.8,1246.4,343.1z"/>
</g>
</svg>
