<svg height="488pt" viewBox="-24 0 488 488" width="488pt" xmlns="http://www.w3.org/2000/svg"><g fill="#263238"><path d="m220 256c-41.945312 0-77.96875-27.800781-88.761719-68.007812-4.910156-.160157-9.613281-1.839844-13.652343-4.886719-.992188-.761719-1.585938-1.945313-1.585938-3.203125v-31.8125c0-1.257813.59375-2.441406 1.59375-3.195313 4.03125-3.046875 8.734375-4.726562 13.652344-4.886719 10.785156-40.214843 46.808594-68.007812 88.753906-68.007812s77.96875 27.800781 88.761719 68.007812c4.910156.160157 9.613281 1.832032 13.644531 4.878907 1 .761719 1.59375 1.945312 1.59375 3.203125v31.820312c0 1.257813-.59375 2.441406-1.59375 3.195313-4.03125 3.046875-8.734375 4.726562-13.644531 4.886719-10.792969 40.214843-46.808594 68.007812-88.761719 68.007812zm-86.273438-76.160156c1.929688 0 4.058594 1.199218 4.480469 3.023437 8.824219 38.351563 42.457031 65.136719 81.792969 65.136719s72.976562-26.785156 81.792969-65.128906c.453125-1.992188 2.351562-3.328125 4.359375-3.078125 1.085937.144531 1.464844.207031 1.847656.207031 2.808594 0 5.535156-.761719 8-2.214844v-27.578125c-2.808594-1.664062-6.070312-2.503906-9.160156-2.09375-2.0625.292969-4.582032-.976562-5.046875-2.992187-8.816407-38.335938-42.449219-65.121094-81.792969-65.121094s-72.976562 26.785156-81.792969 65.128906c-.464843 1.992188-2.382812 3.335938-4.359375 3.070313-1.0625-.136719-1.449218-.199219-1.847656-.199219-2.816406 0-5.542969.761719-8 2.214844v27.570312c2.808594 1.664063 6.0625 2.511719 9.144531 2.101563.191407-.03125.382813-.046875.582031-.046875zm0 0"/><path d="m76 456c-2.207031 0-4-1.792969-4-4v-104.441406c0-25.636719 15.222656-48.726563 38.792969-58.824219l75.640625-32.414063c2.015625-.886718 4.375.0625 5.246094 2.105469.871093 2.023438-.070313 4.375-2.105469 5.246094l-75.636719 32.417969c-20.617188 8.832031-33.9375 29.039062-33.9375 51.46875v104.441406c0 2.207031-1.792969 4-4 4zm0 0"/><path d="m364 456c-2.207031 0-4-1.792969-4-4v-104.441406c0-22.429688-13.320312-42.636719-33.9375-51.46875l-75.636719-32.417969c-2.035156-.871094-2.976562-3.222656-2.105469-5.246094.871094-2.042969 3.238282-2.984375 5.246094-2.105469l75.640625 32.414063c23.5625 10.097656 38.792969 33.1875 38.792969 58.824219v104.441406c0 2.207031-1.792969 4-4 4zm0 0"/><path d="m220 283.097656c-13.398438 0-25.839844-6.65625-33.28125-17.808594l-2.046875-3.074218c-.441406-.65625-.671875-1.421875-.671875-2.214844v-14.089844c0-1.324218.65625-2.558594 1.742188-3.300781 1.089843-.753906 2.488281-.90625 3.714843-.417969 19.664063 7.710938 41.414063 7.710938 61.078125 0 1.242188-.480468 2.625-.328125 3.710938.417969 1.097656.742187 1.746094 1.984375 1.746094 3.300781v14.089844c0 .792969-.230469 1.558594-.671876 2.214844l-2.046874 3.074218c-7.433594 11.152344-19.875 17.808594-33.273438 17.808594zm-28-24.304687 1.375 2.0625c5.953125 8.921875 15.90625 14.25 26.625 14.25s20.671875-5.328125 26.625-14.25l1.375-2.0625v-7.199219c-18.175781 5.855469-37.824219 5.855469-56 0zm60 1.207031h.078125zm0 0"/><path d="m108 253.710938h-72c-2.207031 0-4-1.789063-4-4 0-2.207032 1.792969-4 4-4h72c2.207031 0 4 1.792968 4 4 0 2.210937-1.792969 4-4 4zm0 0"/><path d="m20 253.710938h-16c-2.207031 0-4-1.789063-4-4 0-2.207032 1.792969-4 4-4h16c2.207031 0 4 1.792968 4 4 0 2.210937-1.792969 4-4 4zm0 0"/><path d="m404 253.710938h-72c-2.207031 0-4-1.789063-4-4 0-2.207032 1.792969-4 4-4h72c2.207031 0 4 1.792968 4 4 0 2.210937-1.792969 4-4 4zm0 0"/><path d="m436 253.710938h-16c-2.207031 0-4-1.789063-4-4 0-2.207032 1.792969-4 4-4h16c2.207031 0 4 1.792968 4 4 0 2.210937-1.792969 4-4 4zm0 0"/><path d="m88 60h-32c-2.207031 0-4-1.792969-4-4s1.792969-4 4-4h32c2.207031 0 4 1.792969 4 4s-1.792969 4-4 4zm0 0"/><path d="m72 76c-2.207031 0-4-1.792969-4-4v-32c0-2.207031 1.792969-4 4-4s4 1.792969 4 4v32c0 2.207031-1.792969 4-4 4zm0 0"/><path d="m56 100h-32c-2.207031 0-4-1.792969-4-4s1.792969-4 4-4h32c2.207031 0 4 1.792969 4 4s-1.792969 4-4 4zm0 0"/><path d="m40 116c-2.207031 0-4-1.792969-4-4v-32c0-2.207031 1.792969-4 4-4s4 1.792969 4 4v32c0 2.207031-1.792969 4-4 4zm0 0"/></g><path d="m140 156h-4v-52h24v32c0 11.046875-8.953125 20-20 20zm0 0" fill="#ffd740"/><path d="m140 160h-4c-2.207031 0-4-1.792969-4-4v-52c0-2.207031 1.792969-4 4-4h24c2.207031 0 4 1.792969 4 4v32c0 13.230469-10.761719 24-24 24zm0-8h.078125zm0-44v44c8.824219 0 16-7.175781 16-16v-28zm0 0" fill="#263238"/><path d="m280 103.59375v32.398438c0 11.046874 8.953125 20 20 20h4v-63.480469c-6.304688 6.199219-14.703125 10.144531-24 11.082031zm0 0" fill="#ffd740"/><path d="m304 160h-4c-13.230469 0-24-10.769531-24-24v-32.40625c0-2.058594 1.550781-3.777344 3.601562-3.984375 8.230469-.832031 15.902344-4.363281 21.597657-9.953125 1.152343-1.128906 2.871093-1.449219 4.34375-.832031 1.496093.625 2.457031 2.078125 2.457031 3.6875v63.488281c0 2.207031-1.785156 4-4 4zm-20-52.9375v28.9375c0 8.824219 7.175781 16 16 16v-51.207031c-4.808594 3.078125-10.257812 5.222656-16 6.269531zm0 0" fill="#263238"/><path d="m220 207.976562c-11.273438 0-22.535156-4.289062-31.113281-12.863281-1.558594-1.5625-1.558594-4.097656 0-5.65625 1.5625-1.5625 4.097656-1.5625 5.65625 0 14.042969 14.03125 36.871093 14.03125 50.914062 0 1.558594-1.5625 4.09375-1.5625 5.65625 0 1.558594 1.558594 1.558594 4.09375 0 5.65625-8.578125 8.574219-19.839843 12.863281-31.113281 12.863281zm0 0" fill="#263238"/><path d="m276 104h-140c0-33.136719 26.863281-60 60-60h41.640625c17.367187 0 34.519531-3.769531 50.289063-11.046875l28.070312-12.953125v44c0 22.089844-17.902344 40-40 40zm0 0" fill="#ffd740"/><path d="m276 108h-140c-2.207031 0-4-1.792969-4-4 0-35.289062 28.710938-64 64-64h41.648438c16.664062 0 33.472656-3.6875 48.609374-10.679688l28.070313-12.953124c1.246094-.566407 2.6875-.472657 3.832031.265624 1.152344.734376 1.839844 2.007813 1.839844 3.367188v44c0 24.265625-19.734375 44-44 44zm-135.855469-8h135.855469c19.847656 0 36-16.152344 36-36v-37.753906l-22.390625 10.339844c-16.175781 7.460937-34.144531 11.414062-51.960937 11.414062h-41.648438c-29.527344 0-53.800781 22.984375-55.855469 52zm0 0" fill="#263238"/><path d="m320 136c-2.207031 0-4-1.792969-4-4v-24.585938c0-2.710937-.113281-5.398437-.335938-8.054687-.183593-2.199219 1.449219-4.136719 3.65625-4.320313 2.238282-.246093 4.136719 1.457032 4.320313 3.65625.238281 2.871094.359375 5.785157.359375 8.71875v24.585938c0 2.207031-1.792969 4-4 4zm0 0" fill="#263238"/><path d="m320 132h12c11.046875 0 20 8.953125 20 20v24c0 11.046875-8.953125 20-20 20h-12zm0 0" fill="#ff5252"/><path d="m332 200h-12c-2.207031 0-4-1.792969-4-4v-64c0-2.207031 1.792969-4 4-4h12c13.230469 0 24 10.769531 24 24v24c0 13.230469-10.769531 24-24 24zm-8-8h8c8.824219 0 16-7.175781 16-16v-24c0-8.824219-7.175781-16-16-16h-8zm0 0" fill="#263238"/><path d="m120 196h-12c-11.046875 0-20-8.953125-20-20v-24c0-11.046875 8.953125-20 20-20h12zm0 0" fill="#ff5252"/><path d="m120 200h-12c-13.230469 0-24-10.769531-24-24v-24c0-13.230469 10.769531-24 24-24h12c2.207031 0 4 1.792969 4 4v64c0 2.207031-1.792969 4-4 4zm-12-64c-8.824219 0-16 7.175781-16 16v24c0 8.824219 7.175781 16 16 16h8v-56zm0 0" fill="#263238"/><path d="m320 136c-2.207031 0-4-1.792969-4-4v-28c0-1.0625-.070312-2.113281-.144531-3.160156l-.113281-1.777344c-.109376-2.199219 1.59375-4.078125 3.800781-4.191406 2.128906-.152344 4.082031 1.585937 4.191406 3.800781l.105469 1.640625c.082031 1.214844.160156 2.441406.160156 3.6875v28c0 2.207031-1.792969 4-4 4zm0 0" fill="#263238"/><path d="m120 136c-2.207031 0-4-1.792969-4-4v-28c0-57.34375 46.65625-104 104-104 20.566406 0 40.488281 6.023438 57.59375 17.425781 1.832031 1.222657 2.335938 3.703125 1.109375 5.542969-1.222656 1.832031-3.703125 2.328125-5.542969 1.109375-15.792968-10.519531-34.167968-16.078125-53.160156-16.078125-52.9375 0-96 43.0625-96 96v28c0 2.207031-1.792969 4-4 4zm0 0" fill="#263238"/><path d="m311.625 488h-24.296875c-8.382813 0-16.265625-4.464844-20.574219-11.65625l-12.355468-20.574219c-2.871094-4.792969-8.125-7.769531-13.71875-7.769531h-41.351563c-5.59375 0-10.839844 2.976562-13.71875 7.769531l-12.351563 20.574219c-4.3125 7.183594-12.195312 11.65625-20.578124 11.65625h-24.296876c-7.910156 0-15.054687-3.703125-19.613281-10.175781-4.554687-6.464844-5.648437-14.449219-2.984375-21.894531l20.976563-58.730469c6.230469-17.472657 22.886719-29.199219 41.429687-29.199219h103.625c18.542969 0 35.199219 11.734375 41.429688 29.199219l20.976562 58.730469c2.664063 7.445312 1.578125 15.429687-2.984375 21.894531-4.558593 6.472656-11.710937 10.175781-19.613281 10.175781zm-112.296875-48h41.351563c8.382812 0 16.273437 4.464844 20.578124 11.65625l12.351563 20.574219c2.871094 4.792969 8.132813 7.769531 13.71875 7.769531h24.296875c5.269531 0 10.039062-2.472656 13.078125-6.785156 3.03125-4.3125 3.761719-9.628906 1.992187-14.597656l-20.976562-58.730469c-5.101562-14.285157-18.726562-23.886719-33.902344-23.886719h-103.632812c-15.175782 0-28.800782 9.601562-33.902344 23.886719l-20.976562 58.730469c-1.777344 4.96875-1.046876 10.285156 1.992187 14.597656s7.808594 6.785156 13.078125 6.785156h24.296875c5.585937 0 10.839844-2.976562 13.71875-7.769531l12.351563-20.574219c4.3125-7.191406 12.203124-11.65625 20.585937-11.65625zm-68.808594-41.457031h.082031zm0 0" fill="#263238"/><path d="m188 412c0 11.046875-8.953125 20-20 20s-20-8.953125-20-20 8.953125-20 20-20 20 8.953125 20 20zm0 0" fill="#40c4ff"/><path d="m168 436c-13.230469 0-24-10.769531-24-24s10.769531-24 24-24 24 10.769531 24 24-10.769531 24-24 24zm0-40c-8.824219 0-16 7.175781-16 16s7.175781 16 16 16 16-7.175781 16-16-7.175781-16-16-16zm0 0" fill="#263238"/><path d="m292 412c0 11.046875-8.953125 20-20 20s-20-8.953125-20-20 8.953125-20 20-20 20 8.953125 20 20zm0 0" fill="#40c4ff"/><path d="m272 436c-13.230469 0-24-10.769531-24-24s10.769531-24 24-24 24 10.769531 24 24-10.769531 24-24 24zm0-40c-8.824219 0-16 7.175781-16 16s7.175781 16 16 16 16-7.175781 16-16-7.175781-16-16-16zm0 0" fill="#263238"/><path d="m232 416h-24c-2.207031 0-4-1.792969-4-4s1.792969-4 4-4h24c2.207031 0 4 1.792969 4 4s-1.792969 4-4 4zm0 0" fill="#263238"/></svg>