<svg height="512pt" viewBox="0 0 512 512" width="512pt" xmlns="http://www.w3.org/2000/svg"><path d="m458.710938 507.839844c-46.789063-60.746094-120.101563-100-202.710938-100s-155.921875 39.253906-202.710938 100zm0 0" fill="#40c4ff"/><path d="m458.710938 511.839844c-1.191407 0-2.382813-.539063-3.167969-1.5625-48.199219-62.558594-120.925781-98.4375-199.542969-98.4375s-151.34375 35.878906-199.535156 98.4375c-1.34375 1.761718-3.863282 2.082031-5.609375.730468-1.75-1.347656-2.078125-3.859374-.734375-5.609374 49.71875-64.542969 124.757812-101.558594 205.878906-101.558594s156.160156 37.015625 205.878906 101.558594c1.34375 1.75 1.015625 4.261718-.734375 5.609374-.71875.558594-1.585937.832032-2.433593.832032zm0 0" fill="#263238"/><path d="m472 95.839844h-32c-2.207031 0-4-1.792969-4-4 0-2.210938 1.792969-4 4-4h32c2.207031 0 4 1.789062 4 4 0 2.207031-1.792969 4-4 4zm0 0" fill="#263238"/><path d="m456 111.839844c-2.207031 0-4-1.792969-4-4v-32c0-2.210938 1.792969-4 4-4s4 1.789062 4 4v32c0 2.207031-1.792969 4-4 4zm0 0" fill="#263238"/><path d="m432 135.839844h-32c-2.207031 0-4-1.792969-4-4 0-2.210938 1.792969-4 4-4h32c2.207031 0 4 1.789062 4 4 0 2.207031-1.792969 4-4 4zm0 0" fill="#263238"/><path d="m416 151.839844c-2.207031 0-4-1.792969-4-4v-32c0-2.210938 1.792969-4 4-4s4 1.789062 4 4v32c0 2.207031-1.792969 4-4 4zm0 0" fill="#263238"/><path d="m400 359.839844h-96c-2.207031 0-4-1.792969-4-4v-148c0-1.609375.960938-3.050782 2.433594-3.683594 1.488281-.621094 3.183594-.316406 4.34375.800781l101.542968 97.640625c2.335938 2.25 3.679688 5.398438 3.679688 8.648438v36.59375c0 6.613281-5.382812 12-12 12zm-92-8h92c2.199219 0 4-1.792969 4-4v-36.59375c0-1.082032-.449219-2.136719-1.222656-2.878906l-94.777344-91.136719zm0 0" fill="#263238"/><path d="m304 323.839844h104v24c0 4.414062-3.585938 8-8 8h-96zm0 0" fill="#ff5252"/><path d="m400 359.839844h-96c-2.207031 0-4-1.792969-4-4v-32c0-2.210938 1.792969-4 4-4h104c2.207031 0 4 1.789062 4 4v24c0 6.613281-5.382812 12-12 12zm-92-8h92c2.199219 0 4-1.792969 4-4v-20h-96zm0 0" fill="#263238"/><path d="m168 131.839844h40v48h-40zm0 0" fill="#ff5252"/><path d="m208 183.839844h-40c-2.207031 0-4-1.792969-4-4v-48c0-2.210938 1.792969-4 4-4h40c2.207031 0 4 1.789062 4 4v48c0 2.207031-1.792969 4-4 4zm-36-8h32v-40h-32zm0 0" fill="#263238"/><path d="m208 359.839844h-96c-6.617188 0-12-5.386719-12-12v-36.59375c0-3.25 1.34375-6.398438 3.679688-8.648438l101.542968-97.640625c1.152344-1.109375 2.855469-1.421875 4.34375-.800781 1.472656.632812 2.433594 2.074219 2.433594 3.683594v148c0 2.207031-1.792969 4-4 4zm-4-142.609375-94.777344 91.128906c-.78125.742187-1.222656 1.796875-1.222656 2.878906v36.601563c0 2.207031 1.800781 4 4 4h92zm-97.542969 88.246093h.078125zm0 0" fill="#263238"/><path d="m344 391.839844h-32c-6.617188 0-12-5.386719-12-12v-8c0-2.210938 1.792969-4 4-4s4 1.789062 4 4v8c0 2.207031 1.800781 4 4 4h32c2.199219 0 4-1.792969 4-4v-8c0-2.210938 1.792969-4 4-4s4 1.789062 4 4v8c0 6.613281-5.382812 12-12 12zm0 0" fill="#263238"/><path d="m200 391.839844h-32c-6.617188 0-12-5.386719-12-12v-8c0-2.210938 1.792969-4 4-4s4 1.789062 4 4v8c0 2.207031 1.800781 4 4 4h32c2.199219 0 4-1.792969 4-4v-8c0-2.210938 1.792969-4 4-4s4 1.789062 4 4v8c0 6.613281-5.382812 12-12 12zm0 0" fill="#263238"/><path d="m344 179.839844h-40v-48h40zm0 0" fill="#ff5252"/><path d="m344 183.839844h-40c-2.207031 0-4-1.792969-4-4v-48c0-2.210938 1.792969-4 4-4h40c2.207031 0 4 1.789062 4 4v48c0 2.207031-1.792969 4-4 4zm-36-8h32v-40h-32zm0 0" fill="#263238"/><path d="m344 228.101562c-2.207031 0-4-1.792968-4-4v-102.824218c0-5.558594-1.3125-11.128906-3.808594-16.101563l-12.191406-24.394531-12.191406 24.394531c-2.496094 4.972657-3.808594 10.535157-3.808594 16.101563v86.5625c0 2.207031-1.792969 4-4 4s-4-1.792969-4-4v-86.5625c0-6.800782 1.609375-13.605469 4.648438-19.679688l15.777343-31.550781c1.359375-2.710937 5.796875-2.710937 7.160157 0l15.773437 31.550781c3.039063 6.074219 4.648437 12.878906 4.648437 19.679688v102.824218c-.007812 2.207032-1.800781 4-4.007812 4zm0 0" fill="#263238"/><path d="m208 323.839844h-104v24c0 4.414062 3.585938 8 8 8h96zm0 0" fill="#ff5252"/><g fill="#263238"><path d="m208 359.839844h-96c-6.617188 0-12-5.386719-12-12v-24c0-2.210938 1.792969-4 4-4h104c2.207031 0 4 1.789062 4 4v32c0 2.207031-1.792969 4-4 4zm-100-32v20c0 2.207031 1.800781 4 4 4h92v-24zm0 0"/><path d="m304 375.839844h-96c-2.207031 0-4-1.792969-4-4v-239.203125c0-27.359375 6.921875-54.511719 20.03125-78.527344l28.464844-52.183594c1.390625-2.566406 5.625-2.566406 7.015625 0l28.464843 52.183594c13.101563 24.015625 20.023438 51.167969 20.023438 78.527344v239.203125c0 2.207031-1.792969 4-4 4zm-92-8h88v-235.203125c0-26.023438-6.585938-51.855469-19.046875-74.703125l-24.953125-45.742188-24.953125 45.742188c-12.460937 22.847656-19.046875 48.679687-19.046875 74.703125zm0 0"/><path d="m168 228.101562c-2.207031 0-4-1.792968-4-4v-102.824218c0-6.800782 1.609375-13.605469 4.648438-19.679688l15.777343-31.550781c1.359375-2.710937 5.796875-2.710937 7.160157 0l15.773437 31.550781c3.039063 6.074219 4.648437 12.878906 4.648437 19.679688v70.710937c0 2.210938-1.792968 4-4 4-2.207031 0-4-1.789062-4-4v-70.710937c0-5.558594-1.3125-11.128906-3.808593-16.101563l-12.199219-24.394531-12.191406 24.394531c-2.496094 4.972657-3.808594 10.535157-3.808594 16.101563v102.824218c0 2.214844-1.792969 4-4 4zm0 0"/><path d="m276 495.839844c-2.207031 0-4-1.792969-4-4v-16c0-2.210938 1.792969-4 4-4s4 1.789062 4 4v16c0 2.207031-1.792969 4-4 4zm0 0"/><path d="m276 463.839844c-2.207031 0-4-1.792969-4-4v-72c0-2.210938 1.792969-4 4-4s4 1.789062 4 4v72c0 2.207031-1.792969 4-4 4zm0 0"/><path d="m236 495.839844c-2.207031 0-4-1.792969-4-4v-16c0-2.210938 1.792969-4 4-4s4 1.789062 4 4v16c0 2.207031-1.792969 4-4 4zm0 0"/><path d="m236 463.839844c-2.207031 0-4-1.792969-4-4v-72c0-2.210938 1.792969-4 4-4s4 1.789062 4 4v72c0 2.207031-1.792969 4-4 4zm0 0"/><path d="m276 79.839844h-40c-2.207031 0-4-1.792969-4-4 0-2.210938 1.792969-4 4-4h40c2.207031 0 4 1.789062 4 4 0 2.207031-1.792969 4-4 4zm0 0"/></g><path d="m84 141.839844c0 17.671875-14.328125 32-32 32s-32-14.328125-32-32c0-17.675782 14.328125-32 32-32s32 14.324218 32 32zm0 0" fill="#ffd740"/><path d="m52 177.839844c-19.847656 0-36-16.152344-36-36 0-19.851563 16.152344-36 36-36s36 16.148437 36 36c0 19.847656-16.152344 36-36 36zm0-64c-15.441406 0-28 12.558594-28 28 0 15.4375 12.558594 28 28 28s28-12.5625 28-28c0-15.441406-12.558594-28-28-28zm0 0" fill="#263238"/><path d="m508 253.839844c0 11.042968-8.953125 20-20 20s-20-8.957032-20-20c0-11.046875 8.953125-20 20-20s20 8.953125 20 20zm0 0" fill="#ffd740"/><path d="m488 277.839844c-13.230469 0-24-10.769532-24-24 0-13.234375 10.769531-24 24-24s24 10.765625 24 24c0 13.230468-10.769531 24-24 24zm0-40c-8.824219 0-16 7.175781-16 16 0 8.820312 7.175781 16 16 16s16-7.179688 16-16c0-8.824219-7.175781-16-16-16zm0 0" fill="#263238"/><path d="m100 145.839844h-96c-2.207031 0-4-1.792969-4-4 0-2.210938 1.792969-4 4-4h96c2.207031 0 4 1.789062 4 4 0 2.207031-1.792969 4-4 4zm0 0" fill="#263238"/></svg>