<?xml version="1.0" encoding="utf-8"?>
<!-- Generator: Adobe Illustrator 24.3.0, SVG Export Plug-In . SVG Version: 6.00 Build 0)  -->
<svg version="1.1" id="Layer_1" xmlns="http://www.w3.org/2000/svg" xmlns:xlink="http://www.w3.org/1999/xlink" x="0px" y="0px"
	 viewBox="0 0 370 436" style="enable-background:new 0 0 370 436;" xml:space="preserve">
<style type="text/css">
	.st0{fill:#00ACC1;}
</style>
<path class="st0" d="M364.4,200.9l-122.2-98l53-94.3c3.4-6-4.5-11.8-9.3-6.9L212,78.7l-25.4-20.4c-2.7-2.1-6-3.3-9.4-3.3h-75.7
	c-5.6,0-10.7,3.1-13.3,8.1L1.7,229.9c-2,3.9-2.2,8.5-0.6,12.6l12.8,31.1l135.2,84.4c7,4.4,9.2,13.6,4.8,20.7
	c-4.4,7-13.6,9.2-20.7,4.8l-99.7-62.2L80.9,436h208.7l26.8-37.3c3.6-5,3.8-11.8,0.3-17l-66.6-101.1l-115.4-55.2
	c-7.5-3.6-10.6-12.5-7.1-20c3.6-7.5,12.5-10.6,20-7.1l147.9,70.8l45.2,5.3c7.4,0.9,14.4-3.9,16.3-11.1l12.4-47
	C371,210.6,369,204.6,364.4,200.9z"/>
</svg>
